<svg width="33" height="35" viewBox="0 0 33 35" fill="none" xmlns="http://www.w3.org/2000/svg">
<rect width="33" height="35" rx="14" fill="#2476FF"/>
<path d="M24 8.13867C24.444 9.50785 25.6564 10.5555 27.1689 11C25.6567 11.4444 24.4442 12.4916 24 13.8604C23.5557 12.4913 22.3427 11.4442 20.8301 11C22.3431 10.5557 23.5559 9.50812 24 8.13867Z" stroke="white" stroke-opacity="0.88"/>
<path d="M10 20.1387C10.444 21.5079 11.6564 22.5555 13.1689 23C11.6567 23.4444 10.4442 24.4916 10 25.8604C9.55571 24.4913 8.34273 23.4442 6.83008 23C8.34305 22.5557 9.55594 21.5081 10 20.1387Z" stroke="white" stroke-opacity="0.88"/>
<path d="M16.7064 5.28447C16.7477 4.90518 17.2523 4.90518 17.2936 5.28447L17.6396 8.46644C18.0865 12.5752 21.056 15.8147 24.8224 16.3022L27.7392 16.6798C28.0869 16.7248 28.0869 17.2752 27.7392 17.3202L24.8224 17.6978C21.056 18.1853 18.0865 21.4248 17.6396 25.5335L17.2936 28.7155C17.2523 29.0948 16.7477 29.0948 16.7064 28.7155L16.3604 25.5335C15.9135 21.4248 12.944 18.1853 9.17757 17.6978L6.26077 17.3202C5.91308 17.2752 5.91308 16.7248 6.26077 16.6798L9.17757 16.3022C12.944 15.8147 15.9135 12.5752 16.3604 8.46644L16.7064 5.28447Z" fill="white"/>
</svg>
