<svg width="55" height="55" viewBox="0 0 55 55" fill="none" xmlns="http://www.w3.org/2000/svg">
<circle cx="27.5" cy="27.5" r="27.5" fill="#C8E0FF"/>
<path d="M28.7071 15.2929C28.3166 14.9024 27.6834 14.9024 27.2929 15.2929L20.9289 21.6569C20.5384 22.0474 20.5384 22.6805 20.9289 23.0711C21.3195 23.4616 21.9526 23.4616 22.3431 23.0711L28 17.4142L33.6569 23.0711C34.0474 23.4616 34.6805 23.4616 35.0711 23.0711C35.4616 22.6805 35.4616 22.0474 35.0711 21.6569L28.7071 15.2929ZM28 35L29 35L29 16L28 16L27 16L27 35L28 35Z" fill="#155DFC"/>
<line x1="21" y1="34" x2="21" y2="39" stroke="#155DFC" stroke-width="2"/>
<line x1="35" y1="34" x2="35" y2="39" stroke="#155DFC" stroke-width="2"/>
<line x1="22" y1="38" x2="34" y2="38" stroke="#155DFC" stroke-width="2"/>
</svg>
